<svg width="1880" height="888" viewBox="0 0 1880 888" fill="none" xmlns="http://www.w3.org/2000/svg">
<path d="M459 378.5C459 378.776 458.776 379 458.5 379C458.224 379 458 378.776 458 378.5C458 378.224 458.224 378 458.5 378C458.776 378 459 378.224 459 378.5Z" fill="white"/>
<path d="M627 355C627 356.105 626.105 357 625 357C623.895 357 623 356.105 623 355C623 353.895 623.895 353 625 353C626.105 353 627 353.895 627 355Z" fill="white"/>
<path d="M396 381.5C396 382.328 395.328 383 394.5 383C393.672 383 393 382.328 393 381.5C393 380.672 393.672 380 394.5 380C395.328 380 396 380.672 396 381.5Z" fill="white"/>
<path d="M445 413C445 413.552 444.552 414 444 414C443.448 414 443 413.552 443 413C443 412.448 443.448 412 444 412C444.552 412 445 412.448 445 413Z" fill="white"/>
<path d="M294 376C294 377.105 293.105 378 292 378C290.895 378 290 377.105 290 376C290 374.895 290.895 374 292 374C293.105 374 294 374.895 294 376Z" fill="white"/>
<path d="M351 223C351 224.105 350.105 225 349 225C347.895 225 347 224.105 347 223C347 221.895 347.895 221 349 221C350.105 221 351 221.895 351 223Z" fill="white"/>
<path d="M675 251C675 252.105 674.105 253 673 253C671.895 253 671 252.105 671 251C671 249.895 671.895 249 673 249C674.105 249 675 249.895 675 251Z" fill="white"/>
<path d="M482 282.5C482 283.328 481.328 284 480.5 284C479.672 284 479 283.328 479 282.5C479 281.672 479.672 281 480.5 281C481.328 281 482 281.672 482 282.5Z" fill="white"/>
<path d="M716 225.5C716 226.328 715.328 227 714.5 227C713.672 227 713 226.328 713 225.5C713 224.672 713.672 224 714.5 224C715.328 224 716 224.672 716 225.5Z" fill="white"/>
<path d="M289 189.5C289 190.328 288.328 191 287.5 191C286.672 191 286 190.328 286 189.5C286 188.672 286.672 188 287.5 188C288.328 188 289 188.672 289 189.5Z" fill="white"/>
<path d="M682 146.5C682 147.328 681.328 148 680.5 148C679.672 148 679 147.328 679 146.5C679 145.672 679.672 145 680.5 145C681.328 145 682 145.672 682 146.5Z" fill="white"/>
<path d="M774 427.5C774 428.328 773.328 429 772.5 429C771.672 429 771 428.328 771 427.5C771 426.672 771.672 426 772.5 426C773.328 426 774 426.672 774 427.5Z" fill="white"/>
<path d="M238 81.5C238 82.3284 237.328 83 236.5 83C235.672 83 235 82.3284 235 81.5C235 80.6716 235.672 80 236.5 80C237.328 80 238 80.6716 238 81.5Z" fill="white"/>
<path d="M154 203.5C154 204.328 153.328 205 152.5 205C151.672 205 151 204.328 151 203.5C151 202.672 151.672 202 152.5 202C153.328 202 154 202.672 154 203.5Z" fill="white"/>
<path d="M667 155.5C667 155.776 666.776 156 666.5 156C666.224 156 666 155.776 666 155.5C666 155.224 666.224 155 666.5 155C666.776 155 667 155.224 667 155.5Z" fill="white"/>
<path d="M418 51.5C418 51.7761 417.776 52 417.5 52C417.224 52 417 51.7761 417 51.5C417 51.2239 417.224 51 417.5 51C417.776 51 418 51.2239 418 51.5Z" fill="white"/>
<path d="M125 262.5C125 262.776 124.776 263 124.5 263C124.224 263 124 262.776 124 262.5C124 262.224 124.224 262 124.5 262C124.776 262 125 262.224 125 262.5Z" fill="white"/>
<path d="M793 281.5C793 281.776 792.776 282 792.5 282C792.224 282 792 281.776 792 281.5C792 281.224 792.224 281 792.5 281C792.776 281 793 281.224 793 281.5Z" fill="white"/>
<path d="M166 443.5C166 443.776 165.776 444 165.5 444C165.224 444 165 443.776 165 443.5C165 443.224 165.224 443 165.5 443C165.776 443 166 443.224 166 443.5Z" fill="white"/>
<path d="M153 17.5C153 17.7761 152.776 18 152.5 18C152.224 18 152 17.7761 152 17.5C152 17.2239 152.224 17 152.5 17C152.776 17 153 17.2239 153 17.5Z" fill="white"/>
<path d="M786 58C786 58.5523 785.552 59 785 59C784.448 59 784 58.5523 784 58C784 57.4477 784.448 57 785 57C785.552 57 786 57.4477 786 58Z" fill="white"/>
<path d="M587 19C587 19.5523 586.552 20 586 20C585.448 20 585 19.5523 585 19C585 18.4477 585.448 18 586 18C586.552 18 587 18.4477 587 19Z" fill="white"/>
<path d="M838 63C838 64.1046 837.105 65 836 65C834.895 65 834 64.1046 834 63C834 61.8954 834.895 61 836 61C837.105 61 838 61.8954 838 63Z" fill="white"/>
<path d="M323 177.5C323 177.776 322.776 178 322.5 178C322.224 178 322 177.776 322 177.5C322 177.224 322.224 177 322.5 177C322.776 177 323 177.224 323 177.5Z" fill="white"/>
<path d="M76 302C76 303.105 75.1046 304 74 304C72.8954 304 72 303.105 72 302C72 300.895 72.8954 300 74 300C75.1046 300 76 300.895 76 302Z" fill="white"/>
<path d="M824 417C824 418.105 823.105 419 822 419C820.895 419 820 418.105 820 417C820 415.895 820.895 415 822 415C823.105 415 824 415.895 824 417Z" fill="white"/>
<path d="M877 131C877 131.552 876.552 132 876 132C875.448 132 875 131.552 875 131C875 130.448 875.448 130 876 130C876.552 130 877 130.448 877 131Z" fill="white"/>
<path d="M63 95C63 95.5523 62.5523 96 62 96C61.4477 96 61 95.5523 61 95C61 94.4477 61.4477 94 62 94C62.5523 94 63 94.4477 63 95Z" fill="white"/>
<path d="M939 359C939 359.552 938.552 360 938 360C937.448 360 937 359.552 937 359C937 358.448 937.448 358 938 358C938.552 358 939 358.448 939 359Z" fill="white"/>
<path d="M80 390C80 390.552 79.5523 391 79 391C78.4477 391 78 390.552 78 390C78 389.448 78.4477 389 79 389C79.5523 389 80 389.448 80 390Z" fill="white"/>
<path d="M24 343C24 343.552 23.5523 344 23 344C22.4477 344 22 343.552 22 343C22 342.448 22.4477 342 23 342C23.5523 342 24 342.448 24 343Z" fill="white"/>
<path d="M587 124.5C587 124.776 586.776 125 586.5 125C586.224 125 586 124.776 586 124.5C586 124.224 586.224 124 586.5 124C586.776 124 587 124.224 587 124.5Z" fill="white"/>
<path d="M705 2C705 3.10457 704.105 4 703 4C701.895 4 701 3.10457 701 2C701 0.89543 701.895 0 703 0C704.105 0 705 0.89543 705 2Z" fill="white"/>
<path d="M940 93C940 93.5523 939.552 94 939 94C938.448 94 938 93.5523 938 93C938 92.4477 938.448 92 939 92C939.552 92 940 92.4477 940 93Z" fill="white"/>
<path d="M2 120C2 120.552 1.55228 121 1 121C0.447715 121 0 120.552 0 120C0 119.448 0.447715 119 1 119C1.55228 119 2 119.448 2 120Z" fill="white"/>
<path d="M258 13C258 13.5523 257.552 14 257 14C256.448 14 256 13.5523 256 13C256 12.4477 256.448 12 257 12C257.552 12 258 12.4477 258 13Z" fill="white"/>
<path d="M1399 378.5C1399 378.776 1398.78 379 1398.5 379C1398.22 379 1398 378.776 1398 378.5C1398 378.224 1398.22 378 1398.5 378C1398.78 378 1399 378.224 1399 378.5Z" fill="white"/>
<path d="M1567 355C1567 356.105 1566.1 357 1565 357C1563.9 357 1563 356.105 1563 355C1563 353.895 1563.9 353 1565 353C1566.1 353 1567 353.895 1567 355Z" fill="white"/>
<path d="M1336 381.5C1336 382.328 1335.33 383 1334.5 383C1333.67 383 1333 382.328 1333 381.5C1333 380.672 1333.67 380 1334.5 380C1335.33 380 1336 380.672 1336 381.5Z" fill="white"/>
<path d="M1385 413C1385 413.552 1384.55 414 1384 414C1383.45 414 1383 413.552 1383 413C1383 412.448 1383.45 412 1384 412C1384.55 412 1385 412.448 1385 413Z" fill="white"/>
<path d="M1234 376C1234 377.105 1233.1 378 1232 378C1230.9 378 1230 377.105 1230 376C1230 374.895 1230.9 374 1232 374C1233.1 374 1234 374.895 1234 376Z" fill="white"/>
<path d="M1291 223C1291 224.105 1290.1 225 1289 225C1287.9 225 1287 224.105 1287 223C1287 221.895 1287.9 221 1289 221C1290.1 221 1291 221.895 1291 223Z" fill="white"/>
<path d="M1615 251C1615 252.105 1614.1 253 1613 253C1611.9 253 1611 252.105 1611 251C1611 249.895 1611.9 249 1613 249C1614.1 249 1615 249.895 1615 251Z" fill="white"/>
<path d="M1422 282.5C1422 283.328 1421.33 284 1420.5 284C1419.67 284 1419 283.328 1419 282.5C1419 281.672 1419.67 281 1420.5 281C1421.33 281 1422 281.672 1422 282.5Z" fill="white"/>
<path d="M1656 225.5C1656 226.328 1655.33 227 1654.5 227C1653.67 227 1653 226.328 1653 225.5C1653 224.672 1653.67 224 1654.5 224C1655.33 224 1656 224.672 1656 225.5Z" fill="white"/>
<path d="M1229 189.5C1229 190.328 1228.33 191 1227.5 191C1226.67 191 1226 190.328 1226 189.5C1226 188.672 1226.67 188 1227.5 188C1228.33 188 1229 188.672 1229 189.5Z" fill="white"/>
<path d="M1622 146.5C1622 147.328 1621.33 148 1620.5 148C1619.67 148 1619 147.328 1619 146.5C1619 145.672 1619.67 145 1620.5 145C1621.33 145 1622 145.672 1622 146.5Z" fill="white"/>
<path d="M1714 427.5C1714 428.328 1713.33 429 1712.5 429C1711.67 429 1711 428.328 1711 427.5C1711 426.672 1711.67 426 1712.5 426C1713.33 426 1714 426.672 1714 427.5Z" fill="white"/>
<path d="M1178 81.5C1178 82.3284 1177.33 83 1176.5 83C1175.67 83 1175 82.3284 1175 81.5C1175 80.6716 1175.67 80 1176.5 80C1177.33 80 1178 80.6716 1178 81.5Z" fill="white"/>
<path d="M1094 203.5C1094 204.328 1093.33 205 1092.5 205C1091.67 205 1091 204.328 1091 203.5C1091 202.672 1091.67 202 1092.5 202C1093.33 202 1094 202.672 1094 203.5Z" fill="white"/>
<path d="M1607 155.5C1607 155.776 1606.78 156 1606.5 156C1606.22 156 1606 155.776 1606 155.5C1606 155.224 1606.22 155 1606.5 155C1606.78 155 1607 155.224 1607 155.5Z" fill="white"/>
<path d="M1358 51.5C1358 51.7761 1357.78 52 1357.5 52C1357.22 52 1357 51.7761 1357 51.5C1357 51.2239 1357.22 51 1357.5 51C1357.78 51 1358 51.2239 1358 51.5Z" fill="white"/>
<path d="M1065 262.5C1065 262.776 1064.78 263 1064.5 263C1064.22 263 1064 262.776 1064 262.5C1064 262.224 1064.22 262 1064.5 262C1064.78 262 1065 262.224 1065 262.5Z" fill="white"/>
<path d="M1733 281.5C1733 281.776 1732.78 282 1732.5 282C1732.22 282 1732 281.776 1732 281.5C1732 281.224 1732.22 281 1732.5 281C1732.78 281 1733 281.224 1733 281.5Z" fill="white"/>
<path d="M1106 443.5C1106 443.776 1105.78 444 1105.5 444C1105.22 444 1105 443.776 1105 443.5C1105 443.224 1105.22 443 1105.5 443C1105.78 443 1106 443.224 1106 443.5Z" fill="white"/>
<path d="M1093 17.5C1093 17.7761 1092.78 18 1092.5 18C1092.22 18 1092 17.7761 1092 17.5C1092 17.2239 1092.22 17 1092.5 17C1092.78 17 1093 17.2239 1093 17.5Z" fill="white"/>
<path d="M1726 58C1726 58.5523 1725.55 59 1725 59C1724.45 59 1724 58.5523 1724 58C1724 57.4477 1724.45 57 1725 57C1725.55 57 1726 57.4477 1726 58Z" fill="white"/>
<path d="M1527 19C1527 19.5523 1526.55 20 1526 20C1525.45 20 1525 19.5523 1525 19C1525 18.4477 1525.45 18 1526 18C1526.55 18 1527 18.4477 1527 19Z" fill="white"/>
<path d="M1778 63C1778 64.1046 1777.1 65 1776 65C1774.9 65 1774 64.1046 1774 63C1774 61.8954 1774.9 61 1776 61C1777.1 61 1778 61.8954 1778 63Z" fill="white"/>
<path d="M1263 177.5C1263 177.776 1262.78 178 1262.5 178C1262.22 178 1262 177.776 1262 177.5C1262 177.224 1262.22 177 1262.5 177C1262.78 177 1263 177.224 1263 177.5Z" fill="white"/>
<path d="M1016 302C1016 303.105 1015.1 304 1014 304C1012.9 304 1012 303.105 1012 302C1012 300.895 1012.9 300 1014 300C1015.1 300 1016 300.895 1016 302Z" fill="white"/>
<path d="M1764 417C1764 418.105 1763.1 419 1762 419C1760.9 419 1760 418.105 1760 417C1760 415.895 1760.9 415 1762 415C1763.1 415 1764 415.895 1764 417Z" fill="white"/>
<path d="M1817 131C1817 131.552 1816.55 132 1816 132C1815.45 132 1815 131.552 1815 131C1815 130.448 1815.45 130 1816 130C1816.55 130 1817 130.448 1817 131Z" fill="white"/>
<path d="M1003 95C1003 95.5523 1002.55 96 1002 96C1001.45 96 1001 95.5523 1001 95C1001 94.4477 1001.45 94 1002 94C1002.55 94 1003 94.4477 1003 95Z" fill="white"/>
<path d="M1879 359C1879 359.552 1878.55 360 1878 360C1877.45 360 1877 359.552 1877 359C1877 358.448 1877.45 358 1878 358C1878.55 358 1879 358.448 1879 359Z" fill="white"/>
<path d="M1020 390C1020 390.552 1019.55 391 1019 391C1018.45 391 1018 390.552 1018 390C1018 389.448 1018.45 389 1019 389C1019.55 389 1020 389.448 1020 390Z" fill="white"/>
<path d="M964 343C964 343.552 963.552 344 963 344C962.448 344 962 343.552 962 343C962 342.448 962.448 342 963 342C963.552 342 964 342.448 964 343Z" fill="white"/>
<path d="M1527 124.5C1527 124.776 1526.78 125 1526.5 125C1526.22 125 1526 124.776 1526 124.5C1526 124.224 1526.22 124 1526.5 124C1526.78 124 1527 124.224 1527 124.5Z" fill="white"/>
<path d="M1645 2C1645 3.10457 1644.1 4 1643 4C1641.9 4 1641 3.10457 1641 2C1641 0.89543 1641.9 0 1643 0C1644.1 0 1645 0.89543 1645 2Z" fill="white"/>
<path d="M1880 93C1880 93.5523 1879.55 94 1879 94C1878.45 94 1878 93.5523 1878 93C1878 92.4477 1878.45 92 1879 92C1879.55 92 1880 92.4477 1880 93Z" fill="white"/>
<path d="M942 120C942 120.552 941.552 121 941 121C940.448 121 940 120.552 940 120C940 119.448 940.448 119 941 119C941.552 119 942 119.448 942 120Z" fill="white"/>
<path d="M1198 13C1198 13.5523 1197.55 14 1197 14C1196.45 14 1196 13.5523 1196 13C1196 12.4477 1196.45 12 1197 12C1197.55 12 1198 12.4477 1198 13Z" fill="white"/>
<path d="M459 822.5C459 822.776 458.776 823 458.5 823C458.224 823 458 822.776 458 822.5C458 822.224 458.224 822 458.5 822C458.776 822 459 822.224 459 822.5Z" fill="white"/>
<path d="M627 799C627 800.105 626.105 801 625 801C623.895 801 623 800.105 623 799C623 797.895 623.895 797 625 797C626.105 797 627 797.895 627 799Z" fill="white"/>
<path d="M396 825.5C396 826.328 395.328 827 394.5 827C393.672 827 393 826.328 393 825.5C393 824.672 393.672 824 394.5 824C395.328 824 396 824.672 396 825.5Z" fill="white"/>
<path d="M445 857C445 857.552 444.552 858 444 858C443.448 858 443 857.552 443 857C443 856.448 443.448 856 444 856C444.552 856 445 856.448 445 857Z" fill="white"/>
<path d="M294 820C294 821.105 293.105 822 292 822C290.895 822 290 821.105 290 820C290 818.895 290.895 818 292 818C293.105 818 294 818.895 294 820Z" fill="white"/>
<path d="M351 667C351 668.105 350.105 669 349 669C347.895 669 347 668.105 347 667C347 665.895 347.895 665 349 665C350.105 665 351 665.895 351 667Z" fill="white"/>
<path d="M675 695C675 696.105 674.105 697 673 697C671.895 697 671 696.105 671 695C671 693.895 671.895 693 673 693C674.105 693 675 693.895 675 695Z" fill="white"/>
<path d="M482 726.5C482 727.328 481.328 728 480.5 728C479.672 728 479 727.328 479 726.5C479 725.672 479.672 725 480.5 725C481.328 725 482 725.672 482 726.5Z" fill="white"/>
<path d="M716 669.5C716 670.328 715.328 671 714.5 671C713.672 671 713 670.328 713 669.5C713 668.672 713.672 668 714.5 668C715.328 668 716 668.672 716 669.5Z" fill="white"/>
<path d="M289 633.5C289 634.328 288.328 635 287.5 635C286.672 635 286 634.328 286 633.5C286 632.672 286.672 632 287.5 632C288.328 632 289 632.672 289 633.5Z" fill="white"/>
<path d="M682 590.5C682 591.328 681.328 592 680.5 592C679.672 592 679 591.328 679 590.5C679 589.672 679.672 589 680.5 589C681.328 589 682 589.672 682 590.5Z" fill="white"/>
<path d="M774 871.5C774 872.328 773.328 873 772.5 873C771.672 873 771 872.328 771 871.5C771 870.672 771.672 870 772.5 870C773.328 870 774 870.672 774 871.5Z" fill="white"/>
<path d="M238 525.5C238 526.328 237.328 527 236.5 527C235.672 527 235 526.328 235 525.5C235 524.672 235.672 524 236.5 524C237.328 524 238 524.672 238 525.5Z" fill="white"/>
<path d="M154 647.5C154 648.328 153.328 649 152.5 649C151.672 649 151 648.328 151 647.5C151 646.672 151.672 646 152.5 646C153.328 646 154 646.672 154 647.5Z" fill="white"/>
<path d="M667 599.5C667 599.776 666.776 600 666.5 600C666.224 600 666 599.776 666 599.5C666 599.224 666.224 599 666.5 599C666.776 599 667 599.224 667 599.5Z" fill="white"/>
<path d="M418 495.5C418 495.776 417.776 496 417.5 496C417.224 496 417 495.776 417 495.5C417 495.224 417.224 495 417.5 495C417.776 495 418 495.224 418 495.5Z" fill="white"/>
<path d="M125 706.5C125 706.776 124.776 707 124.5 707C124.224 707 124 706.776 124 706.5C124 706.224 124.224 706 124.5 706C124.776 706 125 706.224 125 706.5Z" fill="white"/>
<path d="M793 725.5C793 725.776 792.776 726 792.5 726C792.224 726 792 725.776 792 725.5C792 725.224 792.224 725 792.5 725C792.776 725 793 725.224 793 725.5Z" fill="white"/>
<path d="M166 887.5C166 887.776 165.776 888 165.5 888C165.224 888 165 887.776 165 887.5C165 887.224 165.224 887 165.5 887C165.776 887 166 887.224 166 887.5Z" fill="white"/>
<path d="M153 461.5C153 461.776 152.776 462 152.5 462C152.224 462 152 461.776 152 461.5C152 461.224 152.224 461 152.5 461C152.776 461 153 461.224 153 461.5Z" fill="white"/>
<path d="M786 502C786 502.552 785.552 503 785 503C784.448 503 784 502.552 784 502C784 501.448 784.448 501 785 501C785.552 501 786 501.448 786 502Z" fill="white"/>
<path d="M587 463C587 463.552 586.552 464 586 464C585.448 464 585 463.552 585 463C585 462.448 585.448 462 586 462C586.552 462 587 462.448 587 463Z" fill="white"/>
<path d="M838 507C838 508.105 837.105 509 836 509C834.895 509 834 508.105 834 507C834 505.895 834.895 505 836 505C837.105 505 838 505.895 838 507Z" fill="white"/>
<path d="M323 621.5C323 621.776 322.776 622 322.5 622C322.224 622 322 621.776 322 621.5C322 621.224 322.224 621 322.5 621C322.776 621 323 621.224 323 621.5Z" fill="white"/>
<path d="M76 746C76 747.105 75.1046 748 74 748C72.8954 748 72 747.105 72 746C72 744.895 72.8954 744 74 744C75.1046 744 76 744.895 76 746Z" fill="white"/>
<path d="M824 861C824 862.105 823.105 863 822 863C820.895 863 820 862.105 820 861C820 859.895 820.895 859 822 859C823.105 859 824 859.895 824 861Z" fill="white"/>
<path d="M877 575C877 575.552 876.552 576 876 576C875.448 576 875 575.552 875 575C875 574.448 875.448 574 876 574C876.552 574 877 574.448 877 575Z" fill="white"/>
<path d="M63 539C63 539.552 62.5523 540 62 540C61.4477 540 61 539.552 61 539C61 538.448 61.4477 538 62 538C62.5523 538 63 538.448 63 539Z" fill="white"/>
<path d="M939 803C939 803.552 938.552 804 938 804C937.448 804 937 803.552 937 803C937 802.448 937.448 802 938 802C938.552 802 939 802.448 939 803Z" fill="white"/>
<path d="M80 834C80 834.552 79.5523 835 79 835C78.4477 835 78 834.552 78 834C78 833.448 78.4477 833 79 833C79.5523 833 80 833.448 80 834Z" fill="white"/>
<path d="M24 787C24 787.552 23.5523 788 23 788C22.4477 788 22 787.552 22 787C22 786.448 22.4477 786 23 786C23.5523 786 24 786.448 24 787Z" fill="white"/>
<path d="M587 568.5C587 568.776 586.776 569 586.5 569C586.224 569 586 568.776 586 568.5C586 568.224 586.224 568 586.5 568C586.776 568 587 568.224 587 568.5Z" fill="white"/>
<path d="M705 446C705 447.105 704.105 448 703 448C701.895 448 701 447.105 701 446C701 444.895 701.895 444 703 444C704.105 444 705 444.895 705 446Z" fill="white"/>
<path d="M940 537C940 537.552 939.552 538 939 538C938.448 538 938 537.552 938 537C938 536.448 938.448 536 939 536C939.552 536 940 536.448 940 537Z" fill="white"/>
<path d="M2 564C2 564.552 1.55228 565 1 565C0.447715 565 0 564.552 0 564C0 563.448 0.447715 563 1 563C1.55228 563 2 563.448 2 564Z" fill="white"/>
<path d="M258 457C258 457.552 257.552 458 257 458C256.448 458 256 457.552 256 457C256 456.448 256.448 456 257 456C257.552 456 258 456.448 258 457Z" fill="white"/>
<path d="M1399 822.5C1399 822.776 1398.78 823 1398.5 823C1398.22 823 1398 822.776 1398 822.5C1398 822.224 1398.22 822 1398.5 822C1398.78 822 1399 822.224 1399 822.5Z" fill="white"/>
<path d="M1567 799C1567 800.105 1566.1 801 1565 801C1563.9 801 1563 800.105 1563 799C1563 797.895 1563.9 797 1565 797C1566.1 797 1567 797.895 1567 799Z" fill="white"/>
<path d="M1336 825.5C1336 826.328 1335.33 827 1334.5 827C1333.67 827 1333 826.328 1333 825.5C1333 824.672 1333.67 824 1334.5 824C1335.33 824 1336 824.672 1336 825.5Z" fill="white"/>
<path d="M1385 857C1385 857.552 1384.55 858 1384 858C1383.45 858 1383 857.552 1383 857C1383 856.448 1383.45 856 1384 856C1384.55 856 1385 856.448 1385 857Z" fill="white"/>
<path d="M1234 820C1234 821.105 1233.1 822 1232 822C1230.9 822 1230 821.105 1230 820C1230 818.895 1230.9 818 1232 818C1233.1 818 1234 818.895 1234 820Z" fill="white"/>
<path d="M1291 667C1291 668.105 1290.1 669 1289 669C1287.9 669 1287 668.105 1287 667C1287 665.895 1287.9 665 1289 665C1290.1 665 1291 665.895 1291 667Z" fill="white"/>
<path d="M1615 695C1615 696.105 1614.1 697 1613 697C1611.9 697 1611 696.105 1611 695C1611 693.895 1611.9 693 1613 693C1614.1 693 1615 693.895 1615 695Z" fill="white"/>
<path d="M1422 726.5C1422 727.328 1421.33 728 1420.5 728C1419.67 728 1419 727.328 1419 726.5C1419 725.672 1419.67 725 1420.5 725C1421.33 725 1422 725.672 1422 726.5Z" fill="white"/>
<path d="M1656 669.5C1656 670.328 1655.33 671 1654.5 671C1653.67 671 1653 670.328 1653 669.5C1653 668.672 1653.67 668 1654.5 668C1655.33 668 1656 668.672 1656 669.5Z" fill="white"/>
<path d="M1229 633.5C1229 634.328 1228.33 635 1227.5 635C1226.67 635 1226 634.328 1226 633.5C1226 632.672 1226.67 632 1227.5 632C1228.33 632 1229 632.672 1229 633.5Z" fill="white"/>
<path d="M1622 590.5C1622 591.328 1621.33 592 1620.5 592C1619.67 592 1619 591.328 1619 590.5C1619 589.672 1619.67 589 1620.5 589C1621.33 589 1622 589.672 1622 590.5Z" fill="white"/>
<path d="M1714 871.5C1714 872.328 1713.33 873 1712.5 873C1711.67 873 1711 872.328 1711 871.5C1711 870.672 1711.67 870 1712.5 870C1713.33 870 1714 870.672 1714 871.5Z" fill="white"/>
<path d="M1178 525.5C1178 526.328 1177.33 527 1176.5 527C1175.67 527 1175 526.328 1175 525.5C1175 524.672 1175.67 524 1176.5 524C1177.33 524 1178 524.672 1178 525.5Z" fill="white"/>
<path d="M1094 647.5C1094 648.328 1093.33 649 1092.5 649C1091.67 649 1091 648.328 1091 647.5C1091 646.672 1091.67 646 1092.5 646C1093.33 646 1094 646.672 1094 647.5Z" fill="white"/>
<path d="M1607 599.5C1607 599.776 1606.78 600 1606.5 600C1606.22 600 1606 599.776 1606 599.5C1606 599.224 1606.22 599 1606.5 599C1606.78 599 1607 599.224 1607 599.5Z" fill="white"/>
<path d="M1358 495.5C1358 495.776 1357.78 496 1357.5 496C1357.22 496 1357 495.776 1357 495.5C1357 495.224 1357.22 495 1357.5 495C1357.78 495 1358 495.224 1358 495.5Z" fill="white"/>
<path d="M1065 706.5C1065 706.776 1064.78 707 1064.5 707C1064.22 707 1064 706.776 1064 706.5C1064 706.224 1064.22 706 1064.5 706C1064.78 706 1065 706.224 1065 706.5Z" fill="white"/>
<path d="M1733 725.5C1733 725.776 1732.78 726 1732.5 726C1732.22 726 1732 725.776 1732 725.5C1732 725.224 1732.22 725 1732.5 725C1732.78 725 1733 725.224 1733 725.5Z" fill="white"/>
<path d="M1106 887.5C1106 887.776 1105.78 888 1105.5 888C1105.22 888 1105 887.776 1105 887.5C1105 887.224 1105.22 887 1105.5 887C1105.78 887 1106 887.224 1106 887.5Z" fill="white"/>
<path d="M1093 461.5C1093 461.776 1092.78 462 1092.5 462C1092.22 462 1092 461.776 1092 461.5C1092 461.224 1092.22 461 1092.5 461C1092.78 461 1093 461.224 1093 461.5Z" fill="white"/>
<path d="M1726 502C1726 502.552 1725.55 503 1725 503C1724.45 503 1724 502.552 1724 502C1724 501.448 1724.45 501 1725 501C1725.55 501 1726 501.448 1726 502Z" fill="white"/>
<path d="M1527 463C1527 463.552 1526.55 464 1526 464C1525.45 464 1525 463.552 1525 463C1525 462.448 1525.45 462 1526 462C1526.55 462 1527 462.448 1527 463Z" fill="white"/>
<path d="M1778 507C1778 508.105 1777.1 509 1776 509C1774.9 509 1774 508.105 1774 507C1774 505.895 1774.9 505 1776 505C1777.1 505 1778 505.895 1778 507Z" fill="white"/>
<path d="M1263 621.5C1263 621.776 1262.78 622 1262.5 622C1262.22 622 1262 621.776 1262 621.5C1262 621.224 1262.22 621 1262.5 621C1262.78 621 1263 621.224 1263 621.5Z" fill="white"/>
<path d="M1016 746C1016 747.105 1015.1 748 1014 748C1012.9 748 1012 747.105 1012 746C1012 744.895 1012.9 744 1014 744C1015.1 744 1016 744.895 1016 746Z" fill="white"/>
<path d="M1764 861C1764 862.105 1763.1 863 1762 863C1760.9 863 1760 862.105 1760 861C1760 859.895 1760.9 859 1762 859C1763.1 859 1764 859.895 1764 861Z" fill="white"/>
<path d="M1817 575C1817 575.552 1816.55 576 1816 576C1815.45 576 1815 575.552 1815 575C1815 574.448 1815.45 574 1816 574C1816.55 574 1817 574.448 1817 575Z" fill="white"/>
<path d="M1003 539C1003 539.552 1002.55 540 1002 540C1001.45 540 1001 539.552 1001 539C1001 538.448 1001.45 538 1002 538C1002.55 538 1003 538.448 1003 539Z" fill="white"/>
<path d="M1879 803C1879 803.552 1878.55 804 1878 804C1877.45 804 1877 803.552 1877 803C1877 802.448 1877.45 802 1878 802C1878.55 802 1879 802.448 1879 803Z" fill="white"/>
<path d="M1020 834C1020 834.552 1019.55 835 1019 835C1018.45 835 1018 834.552 1018 834C1018 833.448 1018.45 833 1019 833C1019.55 833 1020 833.448 1020 834Z" fill="white"/>
<path d="M964 787C964 787.552 963.552 788 963 788C962.448 788 962 787.552 962 787C962 786.448 962.448 786 963 786C963.552 786 964 786.448 964 787Z" fill="white"/>
<path d="M1527 568.5C1527 568.776 1526.78 569 1526.5 569C1526.22 569 1526 568.776 1526 568.5C1526 568.224 1526.22 568 1526.5 568C1526.78 568 1527 568.224 1527 568.5Z" fill="white"/>
<path d="M1645 446C1645 447.105 1644.1 448 1643 448C1641.9 448 1641 447.105 1641 446C1641 444.895 1641.9 444 1643 444C1644.1 444 1645 444.895 1645 446Z" fill="white"/>
<path d="M1880 537C1880 537.552 1879.55 538 1879 538C1878.45 538 1878 537.552 1878 537C1878 536.448 1878.45 536 1879 536C1879.55 536 1880 536.448 1880 537Z" fill="white"/>
<path d="M942 564C942 564.552 941.552 565 941 565C940.448 565 940 564.552 940 564C940 563.448 940.448 563 941 563C941.552 563 942 563.448 942 564Z" fill="white"/>
<path d="M1198 457C1198 457.552 1197.55 458 1197 458C1196.45 458 1196 457.552 1196 457C1196 456.448 1196.45 456 1197 456C1197.55 456 1198 456.448 1198 457Z" fill="white"/>
</svg>
